<svg width="45" height="46" viewBox="0 0 45 46" fill="none" xmlns="http://www.w3.org/2000/svg">
<path d="M44.499 31.832C44.4991 31.8221 44.5001 31.8123 44.5001 31.8023C44.5001 31.8001 44.4998 31.7979 44.4997 31.7957C44.4996 31.7795 44.4985 31.7633 44.4972 31.7471C44.4967 31.7392 44.4963 31.7313 44.4954 31.7235C44.4939 31.7096 44.4914 31.6957 44.4891 31.6817C44.4874 31.6717 44.4859 31.6617 44.4837 31.6518C44.4814 31.641 44.4783 31.6304 44.4755 31.6197C44.4721 31.6068 44.4688 31.594 44.4647 31.5815C44.4621 31.5734 44.4588 31.5652 44.4558 31.557C44.4505 31.5425 44.4451 31.5281 44.4388 31.5141C44.4378 31.5119 44.4372 31.5096 44.4361 31.5073L36.8975 14.9222V12.7483H36.945C37.7573 12.7483 38.418 12.0875 38.418 11.2753V11.1624C38.418 10.4356 37.8972 9.82407 37.1797 9.70822L24.7334 7.69971V6.42352C25.2058 5.8941 25.4936 5.19665 25.4936 4.43297C25.4936 2.78236 24.1507 1.43945 22.5001 1.43945C20.8495 1.43945 19.5066 2.78236 19.5066 4.43297C19.5066 5.19665 19.7944 5.8941 20.2668 6.42352V7.63043L7.81293 9.70613C7.09981 9.82502 6.58217 10.4361 6.58217 11.1591V11.2753C6.58217 12.0875 7.24293 12.7483 8.05517 12.7483H8.10269V14.9222L0.563957 31.5073C0.562911 31.5095 0.562246 31.5119 0.561296 31.5141C0.555119 31.528 0.549702 31.5425 0.54438 31.5569C0.541339 31.5651 0.538108 31.5733 0.535352 31.5815C0.531266 31.594 0.52794 31.6068 0.524613 31.6197C0.521762 31.6304 0.518721 31.641 0.516346 31.6518C0.514255 31.6617 0.512734 31.6717 0.511024 31.6817C0.508648 31.6957 0.506177 31.7096 0.504657 31.7235C0.503801 31.7313 0.503516 31.7393 0.502851 31.7472C0.501616 31.7633 0.50057 31.7795 0.50038 31.7956C0.50038 31.7978 0.5 31.8 0.5 31.8022C0.5 31.8123 0.501045 31.8221 0.50114 31.8321C0.501521 31.8401 0.501425 31.8482 0.502091 31.8562C0.546566 34.7878 4.18117 37.0766 8.81543 37.0766C13.4497 37.0766 17.0843 34.7878 17.1287 31.8563C17.1293 31.8483 17.1292 31.8402 17.1296 31.8321C17.1297 31.8222 17.1308 31.8124 17.1308 31.8024C17.1308 31.8002 17.1305 31.798 17.1304 31.7957C17.1303 31.7796 17.1291 31.7634 17.1279 31.7472C17.1273 31.7393 17.127 31.7314 17.1261 31.7236C17.1246 31.7096 17.1221 31.6958 17.1197 31.6818C17.118 31.6718 17.1166 31.6617 17.1144 31.6519C17.112 31.6411 17.109 31.6305 17.1062 31.6197C17.1027 31.6069 17.0995 31.5941 17.0954 31.5816C17.0928 31.5735 17.0894 31.5653 17.0865 31.5571C17.0812 31.5426 17.0757 31.5282 17.0695 31.5142C17.0685 31.512 17.0679 31.5097 17.0668 31.5074L9.52817 14.9222V12.7483H20.2668V28.2334C19.814 28.4849 19.5066 28.9678 19.5066 29.5215V40.0213L14.9916 41.4322C14.0543 41.7252 13.4245 42.5818 13.4245 43.5639V44.7267C13.4245 45.1203 13.7435 45.4395 14.1372 45.4395H30.8629C31.2567 45.4395 31.5757 45.1203 31.5757 44.7267V43.5638C31.5757 42.5817 30.9459 41.7251 30.0086 41.4321L25.4936 40.0213V29.5215C25.4936 28.9678 25.1862 28.4849 24.7334 28.2334V12.7483H35.472V14.9222L27.9333 31.5074C27.9322 31.5096 27.9316 31.512 27.9306 31.5142C27.9244 31.5281 27.919 31.5426 27.9137 31.557C27.9107 31.5652 27.9074 31.5734 27.9047 31.5816C27.9006 31.5941 27.8973 31.6069 27.8939 31.6197C27.8911 31.6305 27.8881 31.6411 27.8857 31.6519C27.8836 31.6617 27.8821 31.6718 27.8804 31.6818C27.878 31.6958 27.8755 31.7096 27.874 31.7236C27.8731 31.7314 27.8728 31.7394 27.8722 31.7473C27.8709 31.7634 27.8699 31.7796 27.8697 31.7957C27.8697 31.7979 27.8693 31.8001 27.8693 31.8023C27.8693 31.8124 27.8704 31.8222 27.8705 31.8322C27.8708 31.8402 27.8708 31.8483 27.8714 31.8563C27.9159 34.7878 31.5505 37.0766 36.1848 37.0766C40.819 37.0766 44.4536 34.7878 44.498 31.8563C44.4987 31.8482 44.4986 31.8401 44.499 31.832ZM8.81543 16.7991L15.3111 31.0896H2.31978L8.81543 16.7991ZM8.81543 35.6511C5.51514 35.6511 2.66759 34.2749 2.04969 32.515H15.5813C14.9633 34.2749 12.1157 35.6511 8.81543 35.6511ZM24.0681 29.5215V39.8325H20.9321V29.5215C20.9321 29.4953 20.9534 29.474 20.9796 29.474H24.0206C24.0467 29.474 24.0681 29.4953 24.0681 29.5215ZM21.6923 28.0485V7.31483C21.9495 7.38706 22.2202 7.42649 22.5001 7.42649C22.78 7.42649 23.0507 7.38706 23.3079 7.31483V28.0485H21.6923ZM22.5001 2.86494C23.3647 2.86494 24.0681 3.56837 24.0681 4.43297C24.0681 5.29758 23.3647 6.00101 22.5001 6.00101C21.6355 6.00101 20.9321 5.29758 20.9321 4.43297C20.9321 3.56837 21.6355 2.86494 22.5001 2.86494ZM8.05517 11.3228C8.02904 11.3228 8.00765 11.3015 8.00765 11.2753V11.1591C8.00765 11.1357 8.02438 11.116 8.04738 11.1122L20.2668 9.07569V11.3228H8.05517ZM30.1502 43.5638V44.014H14.85V43.5638C14.85 43.2086 15.0778 42.8987 15.4169 42.7928L20.3281 41.258H24.6722L29.5834 42.7928C29.9224 42.8988 30.1502 43.2086 30.1502 43.5638ZM24.7334 9.14373L36.9525 11.1156C36.9757 11.1193 36.9925 11.139 36.9925 11.1625V11.2754C36.9925 11.3016 36.9712 11.3229 36.945 11.3229H24.7334V9.14373ZM36.1848 16.7991L42.6804 31.0896H29.6891L36.1848 16.7991ZM36.1848 35.6511C32.8845 35.6511 30.0369 34.2749 29.419 32.515H42.9506C42.3326 34.2749 39.485 35.6511 36.1848 35.6511Z" fill="#004A9B" stroke="#004A9B"/>
</svg>
